Coordinates
version=1
nRows=7
nColumns=46
inDegrees=yes

Units are S.I. units (second, meters, Newtons, ...)
Angles are in degrees.

endheader
time	pelvis_tilt	pelvis_list	pelvis_rotation	pelvis_tx	pelvis_ty	pelvis_tz	bb_angle	bb_tx	bb_ty	bb_tz	hip_flexion_r	hip_adduction_r	hip_rotation_r	knee_angle_r	knee_angle_r_beta	ankle_angle_r	subtalar_angle_r	mtp_angle_r	crank_angle_r	hip_flexion_l	hip_adduction_l	hip_rotation_l	knee_angle_l	knee_angle_l_beta	ankle_angle_l	subtalar_angle_l	mtp_angle_l	crank_angle_l	lumbar_extension	lumbar_bending	lumbar_rotation	arm_flex_r	arm_add_r	arm_rot_r	elbow_flex_r	pro_sup_r	wrist_flex_r	wrist_dev_r	arm_flex_l	arm_add_l	arm_rot_l	elbow_flex_l	pro_sup_l	wrist_flex_l	wrist_dev_l
      0.00500000	    -39.27501422	     -0.20006572	     -2.89744362	      0.10179730	      0.97541374	     -0.21185992	      0.00000000	      0.50000000	      0.00000000	      0.25000000	     98.19607152	     -6.58537328	     -3.42952232	     70.65920239	      1.23323573	      2.89203400	     -4.13042673	      0.00000000	      0.00000000	     81.79451427	     -9.05990898	      2.33673670	     89.35619616	      1.55955983	      3.82381223	    -10.58021468	      0.00000000	      0.00000000	    -18.23533966	      4.18400331	     -0.09917823	     81.12102444	     -6.72860031	     56.10552359	     23.10150413	     47.25346827	      0.00000000	      0.00000000	     77.15362604	    -18.37442570	     54.07017137	     33.04882663	     47.10440733	      0.00000000	      0.00000000
      0.01000000	    -39.23441428	     -0.19397126	     -2.87922089	      0.10180506	      0.97538590	     -0.21186301	      0.00000000	      0.50000000	      0.00000000	      0.25000000	     98.18598032	     -6.65238533	     -3.49525545	     70.70681180	      1.23406667	      2.90377175	     -4.08561951	      0.00000000	      0.00000000	     81.75565773	     -9.04276722	      2.33370057	     89.36304978	      1.55967945	      3.89657825	    -10.52224227	      0.00000000	      0.00000000	    -18.25609735	      4.16657401	     -0.09622792	     81.05869802	     -6.64942376	     55.68304197	     23.05091484	     47.06720156	      0.00000000	      0.00000000	     77.12128684	    -18.20256538	     53.69711208	     32.95029030	     46.82540454	      0.00000000	      0.00000000
      0.01500000	    -39.34407021	     -0.26476499	     -2.88888256	      0.10171670	      0.97522975	     -0.21190656	      0.00000000	      0.50000000	      0.00000000	      0.25000000	     98.27633640	     -6.64447287	     -3.56403496	     70.68283121	      1.23364813	      2.93984412	     -4.03773537	      0.00000000	      0.00000000	     81.90491371	     -9.05007643	      2.43597619	     89.38303925	      1.56002833	      3.82264739	    -10.56728355	      0.00000000	      0.00000000	    -18.17583373	      4.26279285	     -0.10220194	     80.88993692	     -6.74863713	     54.91595260	     23.77565697	     47.00370700	      0.00000000	      0.00000000	     76.90293861	    -18.25682752	     52.85422575	     33.50212001	     46.73321194	      0.00000000	      0.00000000
      0.02000000	    -39.26989775	     -0.18056213	     -2.95590948	      0.10200328	      0.97547708	     -0.21209245	      0.00000000	      0.50000000	      0.00000000	      0.25000000	     98.21599227	     -6.61460241	     -3.47207329	     70.70273722	      1.23399555	      2.89193781	     -3.96831775	      0.00000000	      0.00000000	     81.74056495	     -9.08070139	      2.29401193	     89.31934825	      1.55891671	      3.83283855	    -10.57085339	      0.00000000	      0.00000000	    -18.24618770	      4.18328674	     -0.05466409	     81.03835388	     -6.62957878	     55.71506262	     23.18289016	     46.72629710	      0.00000000	      0.00000000	     77.27701188	    -18.34401369	     54.77382772	     32.95819730	     46.44995628	      0.00000000	      0.00000000
      0.02500000	    -39.26265556	     -0.29554463	     -3.00576412	      0.10190737	      0.97504139	     -0.21194147	      0.00000000	      0.50000000	      0.00000000	      0.25000000	     98.26170490	     -6.55529943	     -3.55328334	     70.82375337	      1.23610768	      2.94296170	     -3.92501696	      0.00000000	      0.00000000	     81.73007158	     -9.16026144	      2.42739699	     89.28417109	      1.55830276	      3.79062148	    -10.56973737	      0.00000000	      0.00000000	    -18.20537691	      4.32000607	      0.05412608	     80.99479322	     -6.19802722	     54.66843526	     22.50537988	     46.52122734	      0.00000000	      0.00000000	     76.97072157	    -17.70693408	     53.05276451	     32.34031727	     46.02250381	      0.00000000	      0.00000000
      0.03000000	    -39.27716743	     -0.29167941	     -3.03719338	      0.10191130	      0.97503097	     -0.21187123	      0.00000000	      0.50000000	      0.00000000	      0.25000000	     98.27766441	     -6.52717540	     -3.55855092	     70.81688517	      1.23598781	      2.94694304	     -3.85786547	      0.00000000	      0.00000000	     81.72928501	     -9.19067210	      2.42317007	     89.26462092	      1.55796154	      3.77441440	    -10.51604696	      0.00000000	      0.00000000	    -18.19914588	      4.28080811	      0.06092016	     80.95376229	     -6.28880817	     55.17458352	     22.53370490	     46.57853292	      0.00000000	      0.00000000	     77.06554848	    -17.79390047	     53.12880886	     32.46466604	     46.00625917	      0.00000000	      0.00000000
      0.03500000	    -39.26332996	     -0.32240819	     -3.04535548	      0.10185493	      0.97499740	     -0.21185690	      0.00000000	      0.50000000	      0.00000000	      0.25000000	     98.27958359	     -6.51608007	     -3.58239783	     70.83873596	      1.23636918	      2.88578788	     -3.96012378	      0.00000000	      0.00000000	     81.74006674	     -9.22215658	      2.42966601	     89.26530596	      1.55797350	      3.66582646	    -10.54025708	      0.00000000	      0.00000000	    -18.25571020	      4.29807912	      0.05322920	     81.12680361	     -6.80751733	     56.89187087	     23.09871893	     46.88151824	      0.00000000	      0.00000000	     77.23345518	    -18.24408421	     54.30521216	     32.94496881	     46.10889310	      0.00000000	      0.00000000
